<svg xmlns="http://www.w3.org/2000/svg" width="776" height="122" viewBox="0 0 776 122" role="img" aria-label="71,362 GitHub contributions in the last year">
<title>71,362 contributions · @taynotfound</title>
<rect width="776" height="122" fill="none"/>
<text x="58" y="12" fill="#8b7d74" font-size="9" font-family="ui-monospace,monospace">Oct</text>
<text x="114" y="12" fill="#8b7d74" font-size="9" font-family="ui-monospace,monospace">Nov</text>
<text x="184" y="12" fill="#8b7d74" font-size="9" font-family="ui-monospace,monospace">Dec</text>
<text x="240" y="12" fill="#8b7d74" font-size="9" font-family="ui-monospace,monospace">Jan</text>
<text x="296" y="12" fill="#8b7d74" font-size="9" font-family="ui-monospace,monospace">Feb</text>
<text x="352" y="12" fill="#8b7d74" font-size="9" font-family="ui-monospace,monospace">Mar</text>
<text x="422" y="12" fill="#8b7d74" font-size="9" font-family="ui-monospace,monospace">Apr</text>
<text x="478" y="12" fill="#8b7d74" font-size="9" font-family="ui-monospace,monospace">May</text>
<text x="548" y="12" fill="#8b7d74" font-size="9" font-family="ui-monospace,monospace">Jun</text>
<text x="604" y="12" fill="#8b7d74" font-size="9" font-family="ui-monospace,monospace">Jul</text>
<text x="660" y="12" fill="#8b7d74" font-size="9" font-family="ui-monospace,monospace">Aug</text>
<text x="730" y="12" fill="#8b7d74" font-size="9" font-family="ui-monospace,monospace">Sep</text>
<text x="0" y="43" fill="#8b7d74" font-size="9" font-family="ui-monospace,monospace">Mon</text>
<text x="0" y="71" fill="#8b7d74" font-size="9" font-family="ui-monospace,monospace">Wed</text>
<text x="0" y="99" fill="#8b7d74" font-size="9" font-family="ui-monospace,monospace">Fri</text>
<rect x="30" y="20" width="11" height="11" rx="2" fill="#241f1d"/>
<rect x="30" y="34" width="11" height="11" rx="2" fill="#241f1d"/>
<rect x="30" y="48" width="11" height="11" rx="2" fill="#241f1d"/>
<rect x="30" y="62" width="11" height="11" rx="2" fill="#241f1d"/>
<rect x="30" y="76" width="11" height="11" rx="2" fill="#241f1d"/>
<rect x="30" y="90" width="11" height="11" rx="2" fill="#241f1d"/>
<rect x="30" y="104" width="11" height="11" rx="2" fill="#241f1d"/>
<rect x="44" y="20" width="11" height="11" rx="2" fill="#241f1d"/>
<rect x="44" y="34" width="11" height="11" rx="2" fill="#5c3a2e"/>
<rect x="44" y="48" width="11" height="11" rx="2" fill="#241f1d"/>
<rect x="44" y="62" width="11" height="11" rx="2" fill="#241f1d"/>
<rect x="44" y="76" width="11" height="11" rx="2" fill="#241f1d"/>
<rect x="44" y="90" width="11" height="11" rx="2" fill="#241f1d"/>
<rect x="44" y="104" width="11" height="11" rx="2" fill="#241f1d"/>
<rect x="58" y="20" width="11" height="11" rx="2" fill="#241f1d"/>
<rect x="58" y="34" width="11" height="11" rx="2" fill="#241f1d"/>
<rect x="58" y="48" width="11" height="11" rx="2" fill="#5c3a2e"/>
<rect x="58" y="62" width="11" height="11" rx="2" fill="#5c3a2e"/>
<rect x="58" y="76" width="11" height="11" rx="2" fill="#241f1d"/>
<rect x="58" y="90" width="11" height="11" rx="2" fill="#241f1d"/>
<rect x="58" y="104" width="11" height="11" rx="2" fill="#241f1d"/>
<rect x="72" y="20" width="11" height="11" rx="2" fill="#241f1d"/>
<rect x="72" y="34" width="11" height="11" rx="2" fill="#241f1d"/>
<rect x="72" y="48" width="11" height="11" rx="2" fill="#241f1d"/>
<rect x="72" y="62" width="11" height="11" rx="2" fill="#241f1d"/>
<rect x="72" y="76" width="11" height="11" rx="2" fill="#241f1d"/>
<rect x="72" y="90" width="11" height="11" rx="2" fill="#241f1d"/>
<rect x="72" y="104" width="11" height="11" rx="2" fill="#241f1d"/>
<rect x="86" y="20" width="11" height="11" rx="2" fill="#241f1d"/>
<rect x="86" y="34" width="11" height="11" rx="2" fill="#241f1d"/>
<rect x="86" y="48" width="11" height="11" rx="2" fill="#241f1d"/>
<rect x="86" y="62" width="11" height="11" rx="2" fill="#241f1d"/>
<rect x="86" y="76" width="11" height="11" rx="2" fill="#241f1d"/>
<rect x="86" y="90" width="11" height="11" rx="2" fill="#5c3a2e"/>
<rect x="86" y="104" width="11" height="11" rx="2" fill="#5c3a2e"/>
<rect x="100" y="20" width="11" height="11" rx="2" fill="#241f1d"/>
<rect x="100" y="34" width="11" height="11" rx="2" fill="#241f1d"/>
<rect x="100" y="48" width="11" height="11" rx="2" fill="#241f1d"/>
<rect x="100" y="62" width="11" height="11" rx="2" fill="#241f1d"/>
<rect x="100" y="76" width="11" height="11" rx="2" fill="#241f1d"/>
<rect x="100" y="90" width="11" height="11" rx="2" fill="#5c3a2e"/>
<rect x="100" y="104" width="11" height="11" rx="2" fill="#241f1d"/>
<rect x="114" y="20" width="11" height="11" rx="2" fill="#241f1d"/>
<rect x="114" y="34" width="11" height="11" rx="2" fill="#241f1d"/>
<rect x="114" y="48" width="11" height="11" rx="2" fill="#241f1d"/>
<rect x="114" y="62" width="11" height="11" rx="2" fill="#241f1d"/>
<rect x="114" y="76" width="11" height="11" rx="2" fill="#5c3a2e"/>
<rect x="114" y="90" width="11" height="11" rx="2" fill="#241f1d"/>
<rect x="114" y="104" width="11" height="11" rx="2" fill="#241f1d"/>
<rect x="128" y="20" width="11" height="11" rx="2" fill="#241f1d"/>
<rect x="128" y="34" width="11" height="11" rx="2" fill="#241f1d"/>
<rect x="128" y="48" width="11" height="11" rx="2" fill="#241f1d"/>
<rect x="128" y="62" width="11" height="11" rx="2" fill="#241f1d"/>
<rect x="128" y="76" width="11" height="11" rx="2" fill="#5c3a2e"/>
<rect x="128" y="90" width="11" height="11" rx="2" fill="#5c3a2e"/>
<rect x="128" y="104" width="11" height="11" rx="2" fill="#241f1d"/>
<rect x="142" y="20" width="11" height="11" rx="2" fill="#241f1d"/>
<rect x="142" y="34" width="11" height="11" rx="2" fill="#241f1d"/>
<rect x="142" y="48" width="11" height="11" rx="2" fill="#241f1d"/>
<rect x="142" y="62" width="11" height="11" rx="2" fill="#241f1d"/>
<rect x="142" y="76" width="11" height="11" rx="2" fill="#241f1d"/>
<rect x="142" y="90" width="11" height="11" rx="2" fill="#241f1d"/>
<rect x="142" y="104" width="11" height="11" rx="2" fill="#241f1d"/>
<rect x="156" y="20" width="11" height="11" rx="2" fill="#5c3a2e"/>
<rect x="156" y="34" width="11" height="11" rx="2" fill="#241f1d"/>
<rect x="156" y="48" width="11" height="11" rx="2" fill="#241f1d"/>
<rect x="156" y="62" width="11" height="11" rx="2" fill="#241f1d"/>
<rect x="156" y="76" width="11" height="11" rx="2" fill="#241f1d"/>
<rect x="156" y="90" width="11" height="11" rx="2" fill="#241f1d"/>
<rect x="156" y="104" width="11" height="11" rx="2" fill="#5c3a2e"/>
<rect x="170" y="20" width="11" height="11" rx="2" fill="#241f1d"/>
<rect x="170" y="34" width="11" height="11" rx="2" fill="#5c3a2e"/>
<rect x="170" y="48" width="11" height="11" rx="2" fill="#241f1d"/>
<rect x="170" y="62" width="11" height="11" rx="2" fill="#241f1d"/>
<rect x="170" y="76" width="11" height="11" rx="2" fill="#241f1d"/>
<rect x="170" y="90" width="11" height="11" rx="2" fill="#241f1d"/>
<rect x="170" y="104" width="11" height="11" rx="2" fill="#241f1d"/>
<rect x="184" y="20" width="11" height="11" rx="2" fill="#241f1d"/>
<rect x="184" y="34" width="11" height="11" rx="2" fill="#241f1d"/>
<rect x="184" y="48" width="11" height="11" rx="2" fill="#241f1d"/>
<rect x="184" y="62" width="11" height="11" rx="2" fill="#241f1d"/>
<rect x="184" y="76" width="11" height="11" rx="2" fill="#5c3a2e"/>
<rect x="184" y="90" width="11" height="11" rx="2" fill="#241f1d"/>
<rect x="184" y="104" width="11" height="11" rx="2" fill="#241f1d"/>
<rect x="198" y="20" width="11" height="11" rx="2" fill="#241f1d"/>
<rect x="198" y="34" width="11" height="11" rx="2" fill="#241f1d"/>
<rect x="198" y="48" width="11" height="11" rx="2" fill="#241f1d"/>
<rect x="198" y="62" width="11" height="11" rx="2" fill="#241f1d"/>
<rect x="198" y="76" width="11" height="11" rx="2" fill="#241f1d"/>
<rect x="198" y="90" width="11" height="11" rx="2" fill="#241f1d"/>
<rect x="198" y="104" width="11" height="11" rx="2" fill="#241f1d"/>
<rect x="212" y="20" width="11" height="11" rx="2" fill="#241f1d"/>
<rect x="212" y="34" width="11" height="11" rx="2" fill="#241f1d"/>
<rect x="212" y="48" width="11" height="11" rx="2" fill="#241f1d"/>
<rect x="212" y="62" width="11" height="11" rx="2" fill="#241f1d"/>
<rect x="212" y="76" width="11" height="11" rx="2" fill="#241f1d"/>
<rect x="212" y="90" width="11" height="11" rx="2" fill="#5c3a2e"/>
<rect x="212" y="104" width="11" height="11" rx="2" fill="#5c3a2e"/>
<rect x="226" y="20" width="11" height="11" rx="2" fill="#241f1d"/>
<rect x="226" y="34" width="11" height="11" rx="2" fill="#241f1d"/>
<rect x="226" y="48" width="11" height="11" rx="2" fill="#241f1d"/>
<rect x="226" y="62" width="11" height="11" rx="2" fill="#241f1d"/>
<rect x="226" y="76" width="11" height="11" rx="2" fill="#241f1d"/>
<rect x="226" y="90" width="11" height="11" rx="2" fill="#241f1d"/>
<rect x="226" y="104" width="11" height="11" rx="2" fill="#241f1d"/>
<rect x="240" y="20" width="11" height="11" rx="2" fill="#241f1d"/>
<rect x="240" y="34" width="11" height="11" rx="2" fill="#241f1d"/>
<rect x="240" y="48" width="11" height="11" rx="2" fill="#241f1d"/>
<rect x="240" y="62" width="11" height="11" rx="2" fill="#241f1d"/>
<rect x="240" y="76" width="11" height="11" rx="2" fill="#241f1d"/>
<rect x="240" y="90" width="11" height="11" rx="2" fill="#241f1d"/>
<rect x="240" y="104" width="11" height="11" rx="2" fill="#241f1d"/>
<rect x="254" y="20" width="11" height="11" rx="2" fill="#241f1d"/>
<rect x="254" y="34" width="11" height="11" rx="2" fill="#241f1d"/>
<rect x="254" y="48" width="11" height="11" rx="2" fill="#241f1d"/>
<rect x="254" y="62" width="11" height="11" rx="2" fill="#241f1d"/>
<rect x="254" y="76" width="11" height="11" rx="2" fill="#241f1d"/>
<rect x="254" y="90" width="11" height="11" rx="2" fill="#241f1d"/>
<rect x="254" y="104" width="11" height="11" rx="2" fill="#5c3a2e"/>
<rect x="268" y="20" width="11" height="11" rx="2" fill="#241f1d"/>
<rect x="268" y="34" width="11" height="11" rx="2" fill="#241f1d"/>
<rect x="268" y="48" width="11" height="11" rx="2" fill="#241f1d"/>
<rect x="268" y="62" width="11" height="11" rx="2" fill="#241f1d"/>
<rect x="268" y="76" width="11" height="11" rx="2" fill="#241f1d"/>
<rect x="268" y="90" width="11" height="11" rx="2" fill="#241f1d"/>
<rect x="268" y="104" width="11" height="11" rx="2" fill="#241f1d"/>
<rect x="282" y="20" width="11" height="11" rx="2" fill="#241f1d"/>
<rect x="282" y="34" width="11" height="11" rx="2" fill="#241f1d"/>
<rect x="282" y="48" width="11" height="11" rx="2" fill="#241f1d"/>
<rect x="282" y="62" width="11" height="11" rx="2" fill="#241f1d"/>
<rect x="282" y="76" width="11" height="11" rx="2" fill="#241f1d"/>
<rect x="282" y="90" width="11" height="11" rx="2" fill="#241f1d"/>
<rect x="282" y="104" width="11" height="11" rx="2" fill="#241f1d"/>
<rect x="296" y="20" width="11" height="11" rx="2" fill="#241f1d"/>
<rect x="296" y="34" width="11" height="11" rx="2" fill="#241f1d"/>
<rect x="296" y="48" width="11" height="11" rx="2" fill="#241f1d"/>
<rect x="296" y="62" width="11" height="11" rx="2" fill="#241f1d"/>
<rect x="296" y="76" width="11" height="11" rx="2" fill="#241f1d"/>
<rect x="296" y="90" width="11" height="11" rx="2" fill="#5c3a2e"/>
<rect x="296" y="104" width="11" height="11" rx="2" fill="#241f1d"/>
<rect x="310" y="20" width="11" height="11" rx="2" fill="#241f1d"/>
<rect x="310" y="34" width="11" height="11" rx="2" fill="#5c3a2e"/>
<rect x="310" y="48" width="11" height="11" rx="2" fill="#241f1d"/>
<rect x="310" y="62" width="11" height="11" rx="2" fill="#241f1d"/>
<rect x="310" y="76" width="11" height="11" rx="2" fill="#241f1d"/>
<rect x="310" y="90" width="11" height="11" rx="2" fill="#241f1d"/>
<rect x="310" y="104" width="11" height="11" rx="2" fill="#241f1d"/>
<rect x="324" y="20" width="11" height="11" rx="2" fill="#241f1d"/>
<rect x="324" y="34" width="11" height="11" rx="2" fill="#241f1d"/>
<rect x="324" y="48" width="11" height="11" rx="2" fill="#241f1d"/>
<rect x="324" y="62" width="11" height="11" rx="2" fill="#241f1d"/>
<rect x="324" y="76" width="11" height="11" rx="2" fill="#241f1d"/>
<rect x="324" y="90" width="11" height="11" rx="2" fill="#241f1d"/>
<rect x="324" y="104" width="11" height="11" rx="2" fill="#241f1d"/>
<rect x="338" y="20" width="11" height="11" rx="2" fill="#5c3a2e"/>
<rect x="338" y="34" width="11" height="11" rx="2" fill="#241f1d"/>
<rect x="338" y="48" width="11" height="11" rx="2" fill="#241f1d"/>
<rect x="338" y="62" width="11" height="11" rx="2" fill="#241f1d"/>
<rect x="338" y="76" width="11" height="11" rx="2" fill="#241f1d"/>
<rect x="338" y="90" width="11" height="11" rx="2" fill="#241f1d"/>
<rect x="338" y="104" width="11" height="11" rx="2" fill="#241f1d"/>
<rect x="352" y="20" width="11" height="11" rx="2" fill="#241f1d"/>
<rect x="352" y="34" width="11" height="11" rx="2" fill="#241f1d"/>
<rect x="352" y="48" width="11" height="11" rx="2" fill="#241f1d"/>
<rect x="352" y="62" width="11" height="11" rx="2" fill="#241f1d"/>
<rect x="352" y="76" width="11" height="11" rx="2" fill="#241f1d"/>
<rect x="352" y="90" width="11" height="11" rx="2" fill="#5c3a2e"/>
<rect x="352" y="104" width="11" height="11" rx="2" fill="#241f1d"/>
<rect x="366" y="20" width="11" height="11" rx="2" fill="#241f1d"/>
<rect x="366" y="34" width="11" height="11" rx="2" fill="#241f1d"/>
<rect x="366" y="48" width="11" height="11" rx="2" fill="#241f1d"/>
<rect x="366" y="62" width="11" height="11" rx="2" fill="#241f1d"/>
<rect x="366" y="76" width="11" height="11" rx="2" fill="#241f1d"/>
<rect x="366" y="90" width="11" height="11" rx="2" fill="#241f1d"/>
<rect x="366" y="104" width="11" height="11" rx="2" fill="#241f1d"/>
<rect x="380" y="20" width="11" height="11" rx="2" fill="#241f1d"/>
<rect x="380" y="34" width="11" height="11" rx="2" fill="#241f1d"/>
<rect x="380" y="48" width="11" height="11" rx="2" fill="#241f1d"/>
<rect x="380" y="62" width="11" height="11" rx="2" fill="#241f1d"/>
<rect x="380" y="76" width="11" height="11" rx="2" fill="#241f1d"/>
<rect x="380" y="90" width="11" height="11" rx="2" fill="#241f1d"/>
<rect x="380" y="104" width="11" height="11" rx="2" fill="#241f1d"/>
<rect x="394" y="20" width="11" height="11" rx="2" fill="#241f1d"/>
<rect x="394" y="34" width="11" height="11" rx="2" fill="#5c3a2e"/>
<rect x="394" y="48" width="11" height="11" rx="2" fill="#5c3a2e"/>
<rect x="394" y="62" width="11" height="11" rx="2" fill="#241f1d"/>
<rect x="394" y="76" width="11" height="11" rx="2" fill="#241f1d"/>
<rect x="394" y="90" width="11" height="11" rx="2" fill="#241f1d"/>
<rect x="394" y="104" width="11" height="11" rx="2" fill="#241f1d"/>
<rect x="408" y="20" width="11" height="11" rx="2" fill="#241f1d"/>
<rect x="408" y="34" width="11" height="11" rx="2" fill="#241f1d"/>
<rect x="408" y="48" width="11" height="11" rx="2" fill="#241f1d"/>
<rect x="408" y="62" width="11" height="11" rx="2" fill="#241f1d"/>
<rect x="408" y="76" width="11" height="11" rx="2" fill="#241f1d"/>
<rect x="408" y="90" width="11" height="11" rx="2" fill="#241f1d"/>
<rect x="408" y="104" width="11" height="11" rx="2" fill="#5c3a2e"/>
<rect x="422" y="20" width="11" height="11" rx="2" fill="#241f1d"/>
<rect x="422" y="34" width="11" height="11" rx="2" fill="#241f1d"/>
<rect x="422" y="48" width="11" height="11" rx="2" fill="#241f1d"/>
<rect x="422" y="62" width="11" height="11" rx="2" fill="#241f1d"/>
<rect x="422" y="76" width="11" height="11" rx="2" fill="#241f1d"/>
<rect x="422" y="90" width="11" height="11" rx="2" fill="#241f1d"/>
<rect x="422" y="104" width="11" height="11" rx="2" fill="#241f1d"/>
<rect x="436" y="20" width="11" height="11" rx="2" fill="#241f1d"/>
<rect x="436" y="34" width="11" height="11" rx="2" fill="#241f1d"/>
<rect x="436" y="48" width="11" height="11" rx="2" fill="#241f1d"/>
<rect x="436" y="62" width="11" height="11" rx="2" fill="#241f1d"/>
<rect x="436" y="76" width="11" height="11" rx="2" fill="#241f1d"/>
<rect x="436" y="90" width="11" height="11" rx="2" fill="#241f1d"/>
<rect x="436" y="104" width="11" height="11" rx="2" fill="#241f1d"/>
<rect x="450" y="20" width="11" height="11" rx="2" fill="#5c3a2e"/>
<rect x="450" y="34" width="11" height="11" rx="2" fill="#5c3a2e"/>
<rect x="450" y="48" width="11" height="11" rx="2" fill="#241f1d"/>
<rect x="450" y="62" width="11" height="11" rx="2" fill="#241f1d"/>
<rect x="450" y="76" width="11" height="11" rx="2" fill="#241f1d"/>
<rect x="450" y="90" width="11" height="11" rx="2" fill="#241f1d"/>
<rect x="450" y="104" width="11" height="11" rx="2" fill="#241f1d"/>
<rect x="464" y="20" width="11" height="11" rx="2" fill="#5c3a2e"/>
<rect x="464" y="34" width="11" height="11" rx="2" fill="#241f1d"/>
<rect x="464" y="48" width="11" height="11" rx="2" fill="#241f1d"/>
<rect x="464" y="62" width="11" height="11" rx="2" fill="#241f1d"/>
<rect x="464" y="76" width="11" height="11" rx="2" fill="#5c3a2e"/>
<rect x="464" y="90" width="11" height="11" rx="2" fill="#5c3a2e"/>
<rect x="464" y="104" width="11" height="11" rx="2" fill="#241f1d"/>
<rect x="478" y="20" width="11" height="11" rx="2" fill="#241f1d"/>
<rect x="478" y="34" width="11" height="11" rx="2" fill="#5c3a2e"/>
<rect x="478" y="48" width="11" height="11" rx="2" fill="#5c3a2e"/>
<rect x="478" y="62" width="11" height="11" rx="2" fill="#5c3a2e"/>
<rect x="478" y="76" width="11" height="11" rx="2" fill="#241f1d"/>
<rect x="478" y="90" width="11" height="11" rx="2" fill="#241f1d"/>
<rect x="478" y="104" width="11" height="11" rx="2" fill="#5c3a2e"/>
<rect x="492" y="20" width="11" height="11" rx="2" fill="#5c3a2e"/>
<rect x="492" y="34" width="11" height="11" rx="2" fill="#241f1d"/>
<rect x="492" y="48" width="11" height="11" rx="2" fill="#241f1d"/>
<rect x="492" y="62" width="11" height="11" rx="2" fill="#5c3a2e"/>
<rect x="492" y="76" width="11" height="11" rx="2" fill="#241f1d"/>
<rect x="492" y="90" width="11" height="11" rx="2" fill="#241f1d"/>
<rect x="492" y="104" width="11" height="11" rx="2" fill="#241f1d"/>
<rect x="506" y="20" width="11" height="11" rx="2" fill="#241f1d"/>
<rect x="506" y="34" width="11" height="11" rx="2" fill="#5c3a2e"/>
<rect x="506" y="48" width="11" height="11" rx="2" fill="#5c3a2e"/>
<rect x="506" y="62" width="11" height="11" rx="2" fill="#241f1d"/>
<rect x="506" y="76" width="11" height="11" rx="2" fill="#241f1d"/>
<rect x="506" y="90" width="11" height="11" rx="2" fill="#5c3a2e"/>
<rect x="506" y="104" width="11" height="11" rx="2" fill="#241f1d"/>
<rect x="520" y="20" width="11" height="11" rx="2" fill="#241f1d"/>
<rect x="520" y="34" width="11" height="11" rx="2" fill="#5c3a2e"/>
<rect x="520" y="48" width="11" height="11" rx="2" fill="#241f1d"/>
<rect x="520" y="62" width="11" height="11" rx="2" fill="#5c3a2e"/>
<rect x="520" y="76" width="11" height="11" rx="2" fill="#241f1d"/>
<rect x="520" y="90" width="11" height="11" rx="2" fill="#5c3a2e"/>
<rect x="520" y="104" width="11" height="11" rx="2" fill="#5c3a2e"/>
<rect x="534" y="20" width="11" height="11" rx="2" fill="#241f1d"/>
<rect x="534" y="34" width="11" height="11" rx="2" fill="#241f1d"/>
<rect x="534" y="48" width="11" height="11" rx="2" fill="#5c3a2e"/>
<rect x="534" y="62" width="11" height="11" rx="2" fill="#241f1d"/>
<rect x="534" y="76" width="11" height="11" rx="2" fill="#5c3a2e"/>
<rect x="534" y="90" width="11" height="11" rx="2" fill="#5c3a2e"/>
<rect x="534" y="104" width="11" height="11" rx="2" fill="#241f1d"/>
<rect x="548" y="20" width="11" height="11" rx="2" fill="#241f1d"/>
<rect x="548" y="34" width="11" height="11" rx="2" fill="#241f1d"/>
<rect x="548" y="48" width="11" height="11" rx="2" fill="#241f1d"/>
<rect x="548" y="62" width="11" height="11" rx="2" fill="#5c3a2e"/>
<rect x="548" y="76" width="11" height="11" rx="2" fill="#5c3a2e"/>
<rect x="548" y="90" width="11" height="11" rx="2" fill="#241f1d"/>
<rect x="548" y="104" width="11" height="11" rx="2" fill="#5c3a2e"/>
<rect x="562" y="20" width="11" height="11" rx="2" fill="#5c3a2e"/>
<rect x="562" y="34" width="11" height="11" rx="2" fill="#5c3a2e"/>
<rect x="562" y="48" width="11" height="11" rx="2" fill="#5c3a2e"/>
<rect x="562" y="62" width="11" height="11" rx="2" fill="#241f1d"/>
<rect x="562" y="76" width="11" height="11" rx="2" fill="#241f1d"/>
<rect x="562" y="90" width="11" height="11" rx="2" fill="#241f1d"/>
<rect x="562" y="104" width="11" height="11" rx="2" fill="#241f1d"/>
<rect x="576" y="20" width="11" height="11" rx="2" fill="#241f1d"/>
<rect x="576" y="34" width="11" height="11" rx="2" fill="#241f1d"/>
<rect x="576" y="48" width="11" height="11" rx="2" fill="#241f1d"/>
<rect x="576" y="62" width="11" height="11" rx="2" fill="#241f1d"/>
<rect x="576" y="76" width="11" height="11" rx="2" fill="#241f1d"/>
<rect x="576" y="90" width="11" height="11" rx="2" fill="#241f1d"/>
<rect x="576" y="104" width="11" height="11" rx="2" fill="#241f1d"/>
<rect x="590" y="20" width="11" height="11" rx="2" fill="#241f1d"/>
<rect x="590" y="34" width="11" height="11" rx="2" fill="#241f1d"/>
<rect x="590" y="48" width="11" height="11" rx="2" fill="#241f1d"/>
<rect x="590" y="62" width="11" height="11" rx="2" fill="#5c3a2e"/>
<rect x="590" y="76" width="11" height="11" rx="2" fill="#5c3a2e"/>
<rect x="590" y="90" width="11" height="11" rx="2" fill="#5c3a2e"/>
<rect x="590" y="104" width="11" height="11" rx="2" fill="#241f1d"/>
<rect x="604" y="20" width="11" height="11" rx="2" fill="#241f1d"/>
<rect x="604" y="34" width="11" height="11" rx="2" fill="#5c3a2e"/>
<rect x="604" y="48" width="11" height="11" rx="2" fill="#241f1d"/>
<rect x="604" y="62" width="11" height="11" rx="2" fill="#5c3a2e"/>
<rect x="604" y="76" width="11" height="11" rx="2" fill="#5c3a2e"/>
<rect x="604" y="90" width="11" height="11" rx="2" fill="#241f1d"/>
<rect x="604" y="104" width="11" height="11" rx="2" fill="#241f1d"/>
<rect x="618" y="20" width="11" height="11" rx="2" fill="#5c3a2e"/>
<rect x="618" y="34" width="11" height="11" rx="2" fill="#5c3a2e"/>
<rect x="618" y="48" width="11" height="11" rx="2" fill="#5c3a2e"/>
<rect x="618" y="62" width="11" height="11" rx="2" fill="#241f1d"/>
<rect x="618" y="76" width="11" height="11" rx="2" fill="#5c3a2e"/>
<rect x="618" y="90" width="11" height="11" rx="2" fill="#ff8f5c"/>
<rect x="618" y="104" width="11" height="11" rx="2" fill="#ff8f5c"/>
<rect x="632" y="20" width="11" height="11" rx="2" fill="#ff8f5c"/>
<rect x="632" y="34" width="11" height="11" rx="2" fill="#ff8f5c"/>
<rect x="632" y="48" width="11" height="11" rx="2" fill="#5c3a2e"/>
<rect x="632" y="62" width="11" height="11" rx="2" fill="#241f1d"/>
<rect x="632" y="76" width="11" height="11" rx="2" fill="#241f1d"/>
<rect x="632" y="90" width="11" height="11" rx="2" fill="#5c3a2e"/>
<rect x="632" y="104" width="11" height="11" rx="2" fill="#5c3a2e"/>
<rect x="646" y="20" width="11" height="11" rx="2" fill="#5c3a2e"/>
<rect x="646" y="34" width="11" height="11" rx="2" fill="#5c3a2e"/>
<rect x="646" y="48" width="11" height="11" rx="2" fill="#5c3a2e"/>
<rect x="646" y="62" width="11" height="11" rx="2" fill="#5c3a2e"/>
<rect x="646" y="76" width="11" height="11" rx="2" fill="#5c3a2e"/>
<rect x="646" y="90" width="11" height="11" rx="2" fill="#5c3a2e"/>
<rect x="646" y="104" width="11" height="11" rx="2" fill="#5c3a2e"/>
<rect x="660" y="20" width="11" height="11" rx="2" fill="#5c3a2e"/>
<rect x="660" y="34" width="11" height="11" rx="2" fill="#5c3a2e"/>
<rect x="660" y="48" width="11" height="11" rx="2" fill="#5c3a2e"/>
<rect x="660" y="62" width="11" height="11" rx="2" fill="#5c3a2e"/>
<rect x="660" y="76" width="11" height="11" rx="2" fill="#5c3a2e"/>
<rect x="660" y="90" width="11" height="11" rx="2" fill="#5c3a2e"/>
<rect x="660" y="104" width="11" height="11" rx="2" fill="#241f1d"/>
<rect x="674" y="20" width="11" height="11" rx="2" fill="#241f1d"/>
<rect x="674" y="34" width="11" height="11" rx="2" fill="#5c3a2e"/>
<rect x="674" y="48" width="11" height="11" rx="2" fill="#5c3a2e"/>
<rect x="674" y="62" width="11" height="11" rx="2" fill="#5c3a2e"/>
<rect x="674" y="76" width="11" height="11" rx="2" fill="#5c3a2e"/>
<rect x="674" y="90" width="11" height="11" rx="2" fill="#5c3a2e"/>
<rect x="674" y="104" width="11" height="11" rx="2" fill="#5c3a2e"/>
<rect x="688" y="20" width="11" height="11" rx="2" fill="#5c3a2e"/>
<rect x="688" y="34" width="11" height="11" rx="2" fill="#5c3a2e"/>
<rect x="688" y="48" width="11" height="11" rx="2" fill="#5c3a2e"/>
<rect x="688" y="62" width="11" height="11" rx="2" fill="#5c3a2e"/>
<rect x="688" y="76" width="11" height="11" rx="2" fill="#5c3a2e"/>
<rect x="688" y="90" width="11" height="11" rx="2" fill="#5c3a2e"/>
<rect x="688" y="104" width="11" height="11" rx="2" fill="#5c3a2e"/>
<rect x="702" y="20" width="11" height="11" rx="2" fill="#5c3a2e"/>
<rect x="702" y="34" width="11" height="11" rx="2" fill="#5c3a2e"/>
<rect x="702" y="48" width="11" height="11" rx="2" fill="#5c3a2e"/>
<rect x="702" y="62" width="11" height="11" rx="2" fill="#5c3a2e"/>
<rect x="702" y="76" width="11" height="11" rx="2" fill="#5c3a2e"/>
<rect x="702" y="90" width="11" height="11" rx="2" fill="#5c3a2e"/>
<rect x="702" y="104" width="11" height="11" rx="2" fill="#5c3a2e"/>
<rect x="716" y="20" width="11" height="11" rx="2" fill="#5c3a2e"/>
<rect x="716" y="34" width="11" height="11" rx="2" fill="#5c3a2e"/>
<rect x="716" y="48" width="11" height="11" rx="2" fill="#5c3a2e"/>
<rect x="716" y="62" width="11" height="11" rx="2" fill="#5c3a2e"/>
<rect x="716" y="76" width="11" height="11" rx="2" fill="#5c3a2e"/>
<rect x="716" y="90" width="11" height="11" rx="2" fill="#5c3a2e"/>
<rect x="716" y="104" width="11" height="11" rx="2" fill="#5c3a2e"/>
<rect x="730" y="20" width="11" height="11" rx="2" fill="#ff8f5c"/>
<rect x="730" y="34" width="11" height="11" rx="2" fill="#5c3a2e"/>
<rect x="730" y="48" width="11" height="11" rx="2" fill="#241f1d"/>
<rect x="730" y="62" width="11" height="11" rx="2" fill="#241f1d"/>
<rect x="730" y="76" width="11" height="11" rx="2" fill="#241f1d"/>
<rect x="730" y="90" width="11" height="11" rx="2" fill="#241f1d"/>
<rect x="730" y="104" width="11" height="11" rx="2" fill="#241f1d"/>
<rect x="744" y="20" width="11" height="11" rx="2" fill="#5c3a2e"/>
<rect x="744" y="34" width="11" height="11" rx="2" fill="#5c3a2e"/>
<rect x="744" y="48" width="11" height="11" rx="2" fill="#241f1d"/>
<rect x="744" y="62" width="11" height="11" rx="2" fill="#241f1d"/>
<rect x="744" y="76" width="11" height="11" rx="2" fill="#5c3a2e"/>
<rect x="744" y="90" width="11" height="11" rx="2" fill="#5c3a2e"/>
<rect x="744" y="104" width="11" height="11" rx="2" fill="#5c3a2e"/>
<rect x="758" y="20" width="11" height="11" rx="2" fill="#5c3a2e"/>
<rect x="758" y="34" width="11" height="11" rx="2" fill="#241f1d"/>
<rect x="758" y="48" width="11" height="11" rx="2" fill="#241f1d"/>
<rect x="758" y="62" width="11" height="11" rx="2" fill="#5c3a2e"/>
<rect x="758" y="76" width="11" height="11" rx="2" fill="#5c3a2e"/>
<rect x="758" y="90" width="11" height="11" rx="2" fill="#5c3a2e"/>
<rect x="758" y="104" width="11" height="11" rx="2" fill="#5c3a2e"/>
</svg>